<?xml version="1.0" encoding="UTF-8"?>
<svg xmlns="http://www.w3.org/2000/svg" xmlns:xlink="http://www.w3.org/1999/xlink" width="375pt" height="374.999991pt" viewBox="0 0 375 374.999991" version="1.2">
<defs>
<clipPath id="clip1">
  <path d="M 34.175781 105.855469 L 340.925781 105.855469 L 340.925781 269.355469 L 34.175781 269.355469 Z M 34.175781 105.855469 "/>
</clipPath>
</defs>
<g id="surface1">
<g clip-path="url(#clip1)" clip-rule="nonzero">
<path style=" stroke:none;fill-rule:nonzero;fill:rgb(100%,100%,100%);fill-opacity:1;" d="M 116.085938 105.855469 C 71.269531 105.855469 34.414062 142.597656 34.414062 187.605469 C 34.414062 232.574219 71.160156 269.355469 116.085938 269.355469 C 143.101562 269.355469 161.214844 256.53125 175.066406 239.039062 C 168.636719 229.125 163.21875 218.847656 158.339844 209.21875 C 146.679688 227.867188 134.75 238.699219 116.085938 238.699219 C 87.710938 238.699219 65.042969 216.007812 65.042969 187.605469 C 65.042969 159.242188 87.886719 136.511719 116.085938 136.511719 C 130.652344 136.511719 139.238281 141.832031 148.308594 152.097656 C 157.382812 162.367188 165.445312 177.882812 173.792969 194.492188 C 182.136719 211.097656 190.769531 228.804688 203.742188 243.449219 C 216.710938 258.089844 235.5 269.355469 259.015625 269.355469 C 303.554688 269.355469 340.6875 232.710938 340.6875 187.605469 C 340.6875 142.636719 303.941406 105.855469 259.015625 105.855469 C 231.960938 105.855469 213.855469 118.785156 200.011719 136.390625 C 206.433594 146.332031 211.84375 156.632812 216.722656 166.269531 C 228.421875 147.4375 240.351562 136.511719 259.015625 136.511719 C 287.390625 136.511719 310.058594 159.203125 310.058594 187.605469 C 310.058594 215.867188 286.773438 238.699219 259.015625 238.699219 C 244.378906 238.699219 235.746094 233.355469 226.652344 223.089844 C 217.558594 212.824219 209.492188 197.320312 201.148438 180.71875 C 192.808594 164.117188 184.195312 146.421875 171.257812 131.78125 C 158.320312 117.140625 139.558594 105.855469 116.085938 105.855469 Z M 116.085938 105.855469 "/>
</g>
</g>
</svg>
